<?xml version="1.0" encoding="UTF-8" standalone="no"?><svg xmlns="http://www.w3.org/2000/svg" xmlns:xlink="http://www.w3.org/1999/xlink" contentScriptType="application/ecmascript" contentStyleType="text/css" height="1020px" preserveAspectRatio="none" style="width:683px;height:1020px;background:#AFEEEE;" version="1.1" viewBox="0 0 683 1020" width="683px" zoomAndPan="magnify"><defs/><g><text fill="#000000" font-family="Segoe UI, BIZ UDPゴシック, sans-serif" font-size="18" lengthAdjust="spacingAndGlyphs" textLength="348" x="166.75" y="28.6855">アクティビティ図.1 [OA 自動ログイン判定]</text><text fill="#000000" font-family="Segoe UI, BIZ UDPゴシック, sans-serif" font-size="18" lengthAdjust="spacingAndGlyphs" textLength="0" x="343.25" y="51.3262"/><ellipse cx="279.5" cy="65.2813" fill="#000000" rx="10" ry="10" style="stroke: none; stroke-width: 1.0;"/><rect fill="#FFFFFF" height="35.0938" rx="12.5" ry="12.5" style="stroke: #000000; stroke-width: 1.5;" width="126" x="216.5" y="95.2813"/><text fill="#000000" font-family="Segoe UI, BIZ UDPゴシック, sans-serif" font-size="12" lengthAdjust="spacingAndGlyphs" textLength="106" x="226.5" y="117.7383">OperatorAgent 起動</text><polygon fill="#FEFECE" points="246.5,199.293,312.5,199.293,324.5,211.293,312.5,223.293,246.5,223.293,234.5,211.293,246.5,199.293" style="stroke: #008000; stroke-width: 1.5;"/><text fill="#000000" font-family="Segoe UI, BIZ UDPゴシック, sans-serif" font-size="11" lengthAdjust="spacingAndGlyphs" textLength="66" x="246.5" y="215.7939">内線番号必須</text><text fill="#000000" font-family="Segoe UI, BIZ UDPゴシック, sans-serif" font-size="11" lengthAdjust="spacingAndGlyphs" textLength="20" x="214.5" y="208.876">Yes</text><text fill="#000000" font-family="Segoe UI, BIZ UDPゴシック, sans-serif" font-size="11" lengthAdjust="spacingAndGlyphs" textLength="204" x="324.5" y="208.876">RR がローカルで動いていない場合に必要</text><rect fill="#FFFFFF" height="35.0938" rx="12.5" ry="12.5" style="stroke: #000000; stroke-width: 1.5;" width="152" x="96.5" y="289.1289"/><text fill="#000000" font-family="Segoe UI, BIZ UDPゴシック, sans-serif" font-size="12" lengthAdjust="spacingAndGlyphs" textLength="132" x="106.5" y="311.5859">ログインダイアログ表示</text><ellipse cx="172.5" cy="369.2227" fill="#FFFFFF" rx="10" ry="10" style="stroke: #000000; stroke-width: 1.5;"/><line style="stroke: #000000; stroke-width: 2.5;" x1="166.3128" x2="178.6872" y1="363.0355" y2="375.4098"/><line style="stroke: #000000; stroke-width: 2.5;" x1="178.6872" x2="166.3128" y1="363.0355" y2="375.4098"/><polygon fill="#FEFECE" points="134,233.293,211,233.293,223,245.293,211,257.293,134,257.293,122,245.293,134,233.293" style="stroke: #008000; stroke-width: 1.5;"/><text fill="#000000" font-family="Segoe UI, BIZ UDPゴシック, sans-serif" font-size="11" lengthAdjust="spacingAndGlyphs" textLength="0" x="179.5" y="268.7119"/><text fill="#000000" font-family="Segoe UI, BIZ UDPゴシック, sans-serif" font-size="11" lengthAdjust="spacingAndGlyphs" textLength="63" x="176.5" y="282.5479">No ： 未入力</text><text fill="#000000" font-family="Segoe UI, BIZ UDPゴシック, sans-serif" font-size="11" lengthAdjust="spacingAndGlyphs" textLength="77" x="134" y="249.7939">内線番号入力済</text><rect fill="#FFFFFF" height="35.0938" rx="12.5" ry="12.5" style="stroke: #000000; stroke-width: 1.5;" width="152" x="310.5" y="344.9648"/><text fill="#000000" font-family="Segoe UI, BIZ UDPゴシック, sans-serif" font-size="12" lengthAdjust="spacingAndGlyphs" textLength="132" x="320.5" y="367.4219">ログインダイアログ表示</text><ellipse cx="386.5" cy="425.0586" fill="#FFFFFF" rx="10" ry="10" style="stroke: #000000; stroke-width: 1.5;"/><line style="stroke: #000000; stroke-width: 2.5;" x1="380.3128" x2="392.6872" y1="418.8714" y2="431.2458"/><line style="stroke: #000000; stroke-width: 2.5;" x1="392.6872" x2="380.3128" y1="418.8714" y2="431.2458"/><polygon fill="#FEFECE" points="348,289.1289,425,289.1289,437,301.1289,425,313.1289,348,313.1289,336,301.1289,348,289.1289" style="stroke: #008000; stroke-width: 1.5;"/><text fill="#000000" font-family="Segoe UI, BIZ UDPゴシック, sans-serif" font-size="11" lengthAdjust="spacingAndGlyphs" textLength="0" x="393.5" y="324.5479"/><text fill="#000000" font-family="Segoe UI, BIZ UDPゴシック, sans-serif" font-size="11" lengthAdjust="spacingAndGlyphs" textLength="63" x="390.5" y="338.3838">No ： 未入力</text><text fill="#000000" font-family="Segoe UI, BIZ UDPゴシック, sans-serif" font-size="11" lengthAdjust="spacingAndGlyphs" textLength="77" x="348" y="305.6299">内線番号入力済</text><polygon fill="#FEFECE" points="348,233.293,425,233.293,437,245.293,425,257.293,348,257.293,336,245.293,348,233.293" style="stroke: #008000; stroke-width: 1.5;"/><text fill="#000000" font-family="Segoe UI, BIZ UDPゴシック, sans-serif" font-size="11" lengthAdjust="spacingAndGlyphs" textLength="0" x="393.5" y="268.7119"/><text fill="#000000" font-family="Segoe UI, BIZ UDPゴシック, sans-serif" font-size="11" lengthAdjust="spacingAndGlyphs" textLength="20" x="390.5" y="282.5479">Yes</text><text fill="#000000" font-family="Segoe UI, BIZ UDPゴシック, sans-serif" font-size="11" lengthAdjust="spacingAndGlyphs" textLength="77" x="348" y="249.7939">サーバ認識構成</text><polygon fill="#FEFECE" points="386.5,488.8945,398.5,500.8945,386.5,512.8945,374.5,500.8945,386.5,488.8945" style="stroke: #008000; stroke-width: 1.5;"/><text fill="#000000" font-family="Segoe UI, BIZ UDPゴシック, sans-serif" font-size="11" lengthAdjust="spacingAndGlyphs" textLength="0" x="401.5" y="470.8057"/><text fill="#000000" font-family="Segoe UI, BIZ UDPゴシック, sans-serif" font-size="11" lengthAdjust="spacingAndGlyphs" textLength="96" x="398.5" y="484.6416">No ： クライアント</text><text fill="#000000" font-family="Segoe UI, BIZ UDPゴシック, sans-serif" font-size="11" lengthAdjust="spacingAndGlyphs" textLength="44" x="398.5" y="498.4775">認識構成</text><polygon fill="#FEFECE" points="279.5,518.8945,291.5,530.8945,279.5,542.8945,267.5,530.8945,279.5,518.8945" style="stroke: #008000; stroke-width: 1.5;"/><polygon fill="#FEFECE" points="230,150.375,329,150.375,341,162.375,329,174.375,230,174.375,218,162.375,230,150.375" style="stroke: #008000; stroke-width: 1.5;"/><text fill="#000000" font-family="Segoe UI, BIZ UDPゴシック, sans-serif" font-size="11" lengthAdjust="spacingAndGlyphs" textLength="96" x="283.5" y="185.7939">No ： 不要ではない</text><text fill="#000000" font-family="Segoe UI, BIZ UDPゴシック, sans-serif" font-size="11" lengthAdjust="spacingAndGlyphs" textLength="99" x="230" y="166.876">内線番号情報が不要</text><polygon fill="#FEFECE" points="279.5,562.8945,291.5,574.8945,279.5,586.8945,267.5,574.8945,279.5,562.8945" style="stroke: #008000; stroke-width: 1.5;"/><text fill="#000000" font-family="Segoe UI, BIZ UDPゴシック, sans-serif" font-size="11" lengthAdjust="spacingAndGlyphs" textLength="70" x="291.5" y="572.4775">　Yes ： 不要</text><polygon fill="#FEFECE" points="203.5,606.8945,355.5,606.8945,367.5,634.5664,355.5,662.2383,203.5,662.2383,191.5,634.5664,203.5,606.8945" style="stroke: #008000; stroke-width: 1.5;"/><text fill="#000000" font-family="Segoe UI, BIZ UDPゴシック, sans-serif" font-size="11" lengthAdjust="spacingAndGlyphs" textLength="0" x="206.5" y="618.3135"/><text fill="#000000" font-family="Segoe UI, BIZ UDPゴシック, sans-serif" font-size="11" lengthAdjust="spacingAndGlyphs" textLength="152" x="203.5" y="632.1494">ユーザIDとパスワードの両方が</text><text fill="#000000" font-family="Segoe UI, BIZ UDPゴシック, sans-serif" font-size="11" lengthAdjust="spacingAndGlyphs" textLength="99" x="203.5" y="645.9854">自動入力されている</text><text fill="#000000" font-family="Segoe UI, BIZ UDPゴシック, sans-serif" font-size="11" lengthAdjust="spacingAndGlyphs" textLength="0" x="206.5" y="659.8213"/><text fill="#000000" font-family="Segoe UI, BIZ UDPゴシック, sans-serif" font-size="11" lengthAdjust="spacingAndGlyphs" textLength="0" x="174.5" y="618.3135"/><text fill="#000000" font-family="Segoe UI, BIZ UDPゴシック, sans-serif" font-size="11" lengthAdjust="spacingAndGlyphs" textLength="20" x="171.5" y="632.1494">Yes</text><text fill="#000000" font-family="Segoe UI, BIZ UDPゴシック, sans-serif" font-size="11" lengthAdjust="spacingAndGlyphs" textLength="176" x="367.5" y="632.1494">No : いずれかもしくは両方が未入力</text><rect fill="#FFFFFF" height="35.0938" rx="12.5" ry="12.5" style="stroke: #000000; stroke-width: 1.5;" width="152" x="33" y="728.0742"/><text fill="#000000" font-family="Segoe UI, BIZ UDPゴシック, sans-serif" font-size="12" lengthAdjust="spacingAndGlyphs" textLength="132" x="43" y="750.5313">ログインダイアログ表示</text><ellipse cx="109" cy="808.168" fill="#FFFFFF" rx="10" ry="10" style="stroke: #000000; stroke-width: 1.5;"/><line style="stroke: #000000; stroke-width: 2.5;" x1="102.8128" x2="115.1872" y1="801.9808" y2="814.3552"/><line style="stroke: #000000; stroke-width: 2.5;" x1="115.1872" x2="102.8128" y1="801.9808" y2="814.3552"/><polygon fill="#FEFECE" points="32,672.2383,186,672.2383,198,684.2383,186,696.2383,32,696.2383,20,684.2383,32,672.2383" style="stroke: #008000; stroke-width: 1.5;"/><text fill="#000000" font-family="Segoe UI, BIZ UDPゴシック, sans-serif" font-size="11" lengthAdjust="spacingAndGlyphs" textLength="0" x="116" y="707.6572"/><text fill="#000000" font-family="Segoe UI, BIZ UDPゴシック, sans-serif" font-size="11" lengthAdjust="spacingAndGlyphs" textLength="13" x="113" y="721.4932">No</text><text fill="#000000" font-family="Segoe UI, BIZ UDPゴシック, sans-serif" font-size="11" lengthAdjust="spacingAndGlyphs" textLength="154" x="32" y="688.7393">自動ログインの設定は有効か？</text><polygon fill="#FEFECE" points="351,672.2383,549,672.2383,561,699.9102,549,727.582,351,727.582,339,699.9102,351,672.2383" style="stroke: #008000; stroke-width: 1.5;"/><text fill="#000000" font-family="Segoe UI, BIZ UDPゴシック, sans-serif" font-size="11" lengthAdjust="spacingAndGlyphs" textLength="0" x="354" y="683.6572"/><text fill="#000000" font-family="Segoe UI, BIZ UDPゴシック, sans-serif" font-size="11" lengthAdjust="spacingAndGlyphs" textLength="198" x="351" y="697.4932">コマンドライン実行(※) で、引数により</text><text fill="#000000" font-family="Segoe UI, BIZ UDPゴシック, sans-serif" font-size="11" lengthAdjust="spacingAndGlyphs" textLength="196" x="351" y="711.3291">ユーザIDとパスワードが設定されている</text><text fill="#000000" font-family="Segoe UI, BIZ UDPゴシック, sans-serif" font-size="11" lengthAdjust="spacingAndGlyphs" textLength="0" x="354" y="725.165"/><text fill="#000000" font-family="Segoe UI, BIZ UDPゴシック, sans-serif" font-size="11" lengthAdjust="spacingAndGlyphs" textLength="20" x="319" y="697.4932">Yes</text><text fill="#000000" font-family="Segoe UI, BIZ UDPゴシック, sans-serif" font-size="11" lengthAdjust="spacingAndGlyphs" textLength="0" x="564" y="683.6572"/><text fill="#000000" font-family="Segoe UI, BIZ UDPゴシック, sans-serif" font-size="11" lengthAdjust="spacingAndGlyphs" textLength="52" x="564" y="697.4932">No ： 無効</text><rect fill="#FFFFFF" height="35.0938" rx="12.5" ry="12.5" style="stroke: #000000; stroke-width: 1.5;" width="152" x="253" y="793.418"/><text fill="#000000" font-family="Segoe UI, BIZ UDPゴシック, sans-serif" font-size="12" lengthAdjust="spacingAndGlyphs" textLength="132" x="263" y="815.875">ログインダイアログ表示</text><ellipse cx="329" cy="873.5117" fill="#FFFFFF" rx="10" ry="10" style="stroke: #000000; stroke-width: 1.5;"/><line style="stroke: #000000; stroke-width: 2.5;" x1="322.8128" x2="335.1872" y1="867.3245" y2="879.6989"/><line style="stroke: #000000; stroke-width: 2.5;" x1="335.1872" x2="322.8128" y1="867.3245" y2="879.6989"/><polygon fill="#FEFECE" points="252,737.582,406,737.582,418,749.582,406,761.582,252,761.582,240,749.582,252,737.582" style="stroke: #008000; stroke-width: 1.5;"/><text fill="#000000" font-family="Segoe UI, BIZ UDPゴシック, sans-serif" font-size="11" lengthAdjust="spacingAndGlyphs" textLength="0" x="336" y="773.001"/><text fill="#000000" font-family="Segoe UI, BIZ UDPゴシック, sans-serif" font-size="11" lengthAdjust="spacingAndGlyphs" textLength="52" x="336" y="786.8369">No ： 無効</text><text fill="#000000" font-family="Segoe UI, BIZ UDPゴシック, sans-serif" font-size="11" lengthAdjust="spacingAndGlyphs" textLength="154" x="252" y="754.083">自動ログインの設定は有効か？</text><rect fill="#FFFFFF" height="35.0938" rx="12.5" ry="12.5" style="stroke: #000000; stroke-width: 1.5;" width="152" x="495" y="737.582"/><text fill="#000000" font-family="Segoe UI, BIZ UDPゴシック, sans-serif" font-size="12" lengthAdjust="spacingAndGlyphs" textLength="132" x="505" y="760.0391">ログインダイアログ表示</text><ellipse cx="571" cy="817.6758" fill="#FFFFFF" rx="10" ry="10" style="stroke: #000000; stroke-width: 1.5;"/><line style="stroke: #000000; stroke-width: 2.5;" x1="564.8128" x2="577.1872" y1="811.4886" y2="823.863"/><line style="stroke: #000000; stroke-width: 2.5;" x1="577.1872" x2="564.8128" y1="811.4886" y2="823.863"/><polygon fill="#FEFECE" points="279.5,915.5117,291.5,927.5117,279.5,939.5117,267.5,927.5117,279.5,915.5117" style="stroke: #008000; stroke-width: 1.5;"/><path d="M357.5,949.5117 L357.5,1008.5664 L671.5,1008.5664 L671.5,959.5117 L661.5,949.5117 L357.5,949.5117 " fill="#FBFB77" style="stroke: #A80036; stroke-width: 1.0;"/><path d="M661.5,949.5117 L661.5,959.5117 L671.5,959.5117 L661.5,949.5117 " fill="#FBFB77" style="stroke: #A80036; stroke-width: 1.0;"/><text fill="#000000" font-family="Segoe UI, BIZ UDPゴシック, sans-serif" font-size="13" lengthAdjust="spacingAndGlyphs" textLength="199" x="363.5" y="968.0068">※ コマンドライン引数については</text><text fill="#000000" font-family="Segoe UI, BIZ UDPゴシック, sans-serif" font-size="13" lengthAdjust="spacingAndGlyphs" textLength="285" x="367.5" y="984.3584">1-2-6. コマンドラインからの OperatorAgent 操作</text><text fill="#000000" font-family="Segoe UI, BIZ UDPゴシック, sans-serif" font-size="13" lengthAdjust="spacingAndGlyphs" textLength="117" x="363.5" y="1000.71">を参照して下さい。</text><rect fill="#DBFF00" height="35.0938" rx="12.5" ry="12.5" style="stroke: #000000; stroke-width: 1.5;" width="116" x="221.5" y="961.4922"/><text fill="#000000" font-family="Segoe UI, BIZ UDPゴシック, sans-serif" font-size="12" lengthAdjust="spacingAndGlyphs" textLength="96" x="231.5" y="983.9492">自動ログイン実行</text><line style="stroke: #000000; stroke-width: 1.5;" x1="279.5" x2="279.5" y1="75.2813" y2="95.2813"/><polygon fill="#000000" points="275.5,85.2813,279.5,95.2813,283.5,85.2813,279.5,89.2813" style="stroke: #000000; stroke-width: 1.0;"/><line style="stroke: #000000; stroke-width: 1.5;" x1="172.5" x2="172.5" y1="324.2227" y2="359.2227"/><polygon fill="#000000" points="168.5,349.2227,172.5,359.2227,176.5,349.2227,172.5,353.2227" style="stroke: #000000; stroke-width: 1.0;"/><line style="stroke: #FF0000; stroke-width: 1.5;" x1="172.5" x2="172.5" y1="257.293" y2="289.1289"/><polygon fill="#FF0000" points="168.5,279.1289,172.5,289.1289,176.5,279.1289,172.5,283.1289" style="stroke: #FF0000; stroke-width: 1.0;"/><line style="stroke: #0000FF; stroke-width: 1.5;" x1="223" x2="258.5" y1="245.293" y2="245.293"/><polygon fill="#0000FF" points="254.5,386.0117,258.5,396.0117,262.5,386.0117,258.5,390.0117" style="stroke: #0000FF; stroke-width: 1.5;"/><line style="stroke: #0000FF; stroke-width: 1.5;" x1="258.5" x2="258.5" y1="245.293" y2="530.8945"/><line style="stroke: #0000FF; stroke-width: 1.5;" x1="258.5" x2="267.5" y1="530.8945" y2="530.8945"/><polygon fill="#0000FF" points="257.5,526.8945,267.5,530.8945,257.5,534.8945,261.5,530.8945" style="stroke: #0000FF; stroke-width: 1.0;"/><line style="stroke: #000000; stroke-width: 1.5;" x1="386.5" x2="386.5" y1="380.0586" y2="415.0586"/><polygon fill="#000000" points="382.5,405.0586,386.5,415.0586,390.5,405.0586,386.5,409.0586" style="stroke: #000000; stroke-width: 1.0;"/><line style="stroke: #FF0000; stroke-width: 1.5;" x1="386.5" x2="386.5" y1="313.1289" y2="344.9648"/><polygon fill="#FF0000" points="382.5,334.9648,386.5,344.9648,390.5,334.9648,386.5,338.9648" style="stroke: #FF0000; stroke-width: 1.0;"/><line style="stroke: #0000FF; stroke-width: 1.5;" x1="437" x2="472.5" y1="301.1289" y2="301.1289"/><polygon fill="#0000FF" points="468.5,377.0117,472.5,387.0117,476.5,377.0117,472.5,381.0117" style="stroke: #0000FF; stroke-width: 1.5;"/><line style="stroke: #0000FF; stroke-width: 1.5;" x1="472.5" x2="472.5" y1="301.1289" y2="457.0586"/><line style="stroke: #0000FF; stroke-width: 1.5;" x1="472.5" x2="386.5" y1="457.0586" y2="457.0586"/><line style="stroke: #0000FF; stroke-width: 1.5;" x1="386.5" x2="386.5" y1="457.0586" y2="488.8945"/><polygon fill="#0000FF" points="382.5,478.8945,386.5,488.8945,390.5,478.8945,386.5,482.8945" style="stroke: #0000FF; stroke-width: 1.0;"/><line style="stroke: #0000FF; stroke-width: 1.5;" x1="386.5" x2="386.5" y1="257.293" y2="289.1289"/><polygon fill="#0000FF" points="382.5,279.1289,386.5,289.1289,390.5,279.1289,386.5,283.1289" style="stroke: #0000FF; stroke-width: 1.0;"/><line style="stroke: #FF0000; stroke-width: 1.5;" x1="437" x2="494.5" y1="245.293" y2="245.293"/><polygon fill="#FF0000" points="490.5,371.0117,494.5,381.0117,498.5,371.0117,494.5,375.0117" style="stroke: #FF0000; stroke-width: 1.5;"/><line style="stroke: #FF0000; stroke-width: 1.5;" x1="494.5" x2="494.5" y1="245.293" y2="500.8945"/><line style="stroke: #FF0000; stroke-width: 1.5;" x1="494.5" x2="398.5" y1="500.8945" y2="500.8945"/><polygon fill="#FF0000" points="408.5,496.8945,398.5,500.8945,408.5,504.8945,404.5,500.8945" style="stroke: #FF0000; stroke-width: 1.0;"/><line style="stroke: #0000FF; stroke-width: 1.5;" x1="234.5" x2="172.5" y1="211.293" y2="211.293"/><line style="stroke: #0000FF; stroke-width: 1.5;" x1="172.5" x2="172.5" y1="211.293" y2="233.293"/><polygon fill="#0000FF" points="168.5,223.293,172.5,233.293,176.5,223.293,172.5,227.293" style="stroke: #0000FF; stroke-width: 1.0;"/><line style="stroke: #FF0000; stroke-width: 1.5;" x1="324.5" x2="386.5" y1="211.293" y2="211.293"/><line style="stroke: #FF0000; stroke-width: 1.5;" x1="386.5" x2="386.5" y1="211.293" y2="233.293"/><polygon fill="#FF0000" points="382.5,223.293,386.5,233.293,390.5,223.293,386.5,227.293" style="stroke: #FF0000; stroke-width: 1.0;"/><line style="stroke: #000000; stroke-width: 1.5;" x1="386.5" x2="386.5" y1="512.8945" y2="530.8945"/><line style="stroke: #000000; stroke-width: 1.5;" x1="386.5" x2="291.5" y1="530.8945" y2="530.8945"/><polygon fill="#000000" points="301.5,526.8945,291.5,530.8945,301.5,534.8945,297.5,530.8945" style="stroke: #000000; stroke-width: 1.0;"/><line style="stroke: #FF0000; stroke-width: 1.5;" x1="279.5" x2="279.5" y1="174.375" y2="199.293"/><polygon fill="#FF0000" points="275.5,189.293,279.5,199.293,283.5,189.293,279.5,193.293" style="stroke: #FF0000; stroke-width: 1.0;"/><line style="stroke: #0000FF; stroke-width: 1.5;" x1="341" x2="538.5" y1="162.375" y2="162.375"/><polygon fill="#0000FF" points="534.5,369.0117,538.5,379.0117,542.5,369.0117,538.5,373.0117" style="stroke: #0000FF; stroke-width: 1.5;"/><line style="stroke: #0000FF; stroke-width: 1.5;" x1="538.5" x2="538.5" y1="162.375" y2="574.8945"/><line style="stroke: #0000FF; stroke-width: 1.5;" x1="538.5" x2="291.5" y1="574.8945" y2="574.8945"/><polygon fill="#0000FF" points="301.5,570.8945,291.5,574.8945,301.5,578.8945,297.5,574.8945" style="stroke: #0000FF; stroke-width: 1.0;"/><line style="stroke: #000000; stroke-width: 1.5;" x1="279.5" x2="279.5" y1="542.8945" y2="562.8945"/><polygon fill="#000000" points="275.5,552.8945,279.5,562.8945,283.5,552.8945,279.5,556.8945" style="stroke: #000000; stroke-width: 1.0;"/><line style="stroke: #000000; stroke-width: 1.5;" x1="279.5" x2="279.5" y1="130.375" y2="150.375"/><polygon fill="#000000" points="275.5,140.375,279.5,150.375,283.5,140.375,279.5,144.375" style="stroke: #000000; stroke-width: 1.0;"/><line style="stroke: #000000; stroke-width: 1.5;" x1="109" x2="109" y1="763.168" y2="798.168"/><polygon fill="#000000" points="105,788.168,109,798.168,113,788.168,109,792.168" style="stroke: #000000; stroke-width: 1.0;"/><line style="stroke: #FF0000; stroke-width: 1.5;" x1="109" x2="109" y1="696.2383" y2="728.0742"/><polygon fill="#FF0000" points="105,718.0742,109,728.0742,113,718.0742,109,722.0742" style="stroke: #FF0000; stroke-width: 1.0;"/><line style="stroke: #0000FF; stroke-width: 1.5;" x1="198" x2="210" y1="684.2383" y2="684.2383"/><polygon fill="#0000FF" points="206,804.793,210,814.793,214,804.793,210,808.793" style="stroke: #0000FF; stroke-width: 1.5;"/><line style="stroke: #0000FF; stroke-width: 1.5;" x1="210" x2="210" y1="684.2383" y2="927.5117"/><line style="stroke: #0000FF; stroke-width: 1.5;" x1="210" x2="267.5" y1="927.5117" y2="927.5117"/><polygon fill="#0000FF" points="257.5,923.5117,267.5,927.5117,257.5,931.5117,261.5,927.5117" style="stroke: #0000FF; stroke-width: 1.0;"/><line style="stroke: #000000; stroke-width: 1.5;" x1="329" x2="329" y1="828.5117" y2="863.5117"/><polygon fill="#000000" points="325,853.5117,329,863.5117,333,853.5117,329,857.5117" style="stroke: #000000; stroke-width: 1.0;"/><line style="stroke: #FF0000; stroke-width: 1.5;" x1="329" x2="329" y1="761.582" y2="793.418"/><polygon fill="#FF0000" points="325,783.418,329,793.418,333,783.418,329,787.418" style="stroke: #FF0000; stroke-width: 1.0;"/><line style="stroke: #0000FF; stroke-width: 1.5;" x1="418" x2="430" y1="749.582" y2="749.582"/><polygon fill="#0000FF" points="426,837.4648,430,847.4648,434,837.4648,430,841.4648" style="stroke: #0000FF; stroke-width: 1.5;"/><line style="stroke: #0000FF; stroke-width: 1.5;" x1="430" x2="430" y1="749.582" y2="927.5117"/><line style="stroke: #0000FF; stroke-width: 1.5;" x1="430" x2="291.5" y1="927.5117" y2="927.5117"/><polygon fill="#0000FF" points="301.5,923.5117,291.5,927.5117,301.5,931.5117,297.5,927.5117" style="stroke: #0000FF; stroke-width: 1.0;"/><line style="stroke: #000000; stroke-width: 1.5;" x1="571" x2="571" y1="772.6758" y2="807.6758"/><polygon fill="#000000" points="567,797.6758,571,807.6758,575,797.6758,571,801.6758" style="stroke: #000000; stroke-width: 1.0;"/><line style="stroke: #0000FF; stroke-width: 1.5;" x1="339" x2="329" y1="699.9102" y2="699.9102"/><line style="stroke: #0000FF; stroke-width: 1.5;" x1="329" x2="329" y1="699.9102" y2="737.582"/><polygon fill="#0000FF" points="325,727.582,329,737.582,333,727.582,329,731.582" style="stroke: #0000FF; stroke-width: 1.0;"/><line style="stroke: #FF0000; stroke-width: 1.5;" x1="561" x2="571" y1="699.9102" y2="699.9102"/><line style="stroke: #FF0000; stroke-width: 1.5;" x1="571" x2="571" y1="699.9102" y2="737.582"/><polygon fill="#FF0000" points="567,727.582,571,737.582,575,727.582,571,731.582" style="stroke: #FF0000; stroke-width: 1.0;"/><line style="stroke: #0000FF; stroke-width: 1.5;" x1="191.5" x2="109" y1="634.5664" y2="634.5664"/><line style="stroke: #0000FF; stroke-width: 1.5;" x1="109" x2="109" y1="634.5664" y2="672.2383"/><polygon fill="#0000FF" points="105,662.2383,109,672.2383,113,662.2383,109,666.2383" style="stroke: #0000FF; stroke-width: 1.0;"/><line style="stroke: #FF0000; stroke-width: 1.5;" x1="367.5" x2="450" y1="634.5664" y2="634.5664"/><line style="stroke: #FF0000; stroke-width: 1.5;" x1="450" x2="450" y1="634.5664" y2="672.2383"/><polygon fill="#FF0000" points="446,662.2383,450,672.2383,454,662.2383,450,666.2383" style="stroke: #FF0000; stroke-width: 1.0;"/><line style="stroke: #000000; stroke-width: 1.5;" x1="279.5" x2="279.5" y1="586.8945" y2="606.8945"/><polygon fill="#000000" points="275.5,596.8945,279.5,606.8945,283.5,596.8945,279.5,600.8945" style="stroke: #000000; stroke-width: 1.0;"/><line style="stroke: #000000; stroke-width: 1.5;" x1="279.5" x2="279.5" y1="939.5117" y2="961.4922"/><polygon fill="#000000" points="275.5,951.4922,279.5,961.4922,283.5,951.4922,279.5,955.4922" style="stroke: #000000; stroke-width: 1.0;"/><!--
@startuml

skinparam {
  shadowing false
  defaultFontName "Segoe UI, BIZ UDPゴシック, sans-serif"
  BackgroundColor #afeeee
  ArrowColor black
}

skinparam activity  {
  BorderColor #000000
  DiamondBorderColor #008000
  BackgroundColor #ffffff
}
title アクティビティ図.1 [OA 自動ログイン判定]\n

start
:OperatorAgent 起動;
if (内線番号情報が不要) then
  -[#blue]-> 　Yes ： 不要;
else
  -[#red]-> No ： 不要ではない;
  if (内線番号必須) then
    -[#blue]-> Yes;
    if (内線番号入力済) then
      -[#blue]-> Yes;
    else
      -[#red]-> \nNo ： 未入力;
      :ログインダイアログ表示;
      end
    endif
  else
    -[#red]-> RR がローカルで動いていない場合に必要;
    if (サーバ認識構成) then
    -[#blue]-> \nYes;
      if (内線番号入力済) then
        -[#blue]-> Yes ： 入力済;
      else
        -[#red]-> \nNo ： 未入力;
        :ログインダイアログ表示;
        end
      endif
    else
      -[#red]-> \nNo ： クライアント\n認識構成;
    endif
  endif
endif
if (\nユーザIDとパスワードの両方が\n自動入力されている\n) then
  -[#blue]-> \nYes;
  if (自動ログインの設定は有効か？) then
    -[#blue]-> \nYes;
  else
    -[#red]-> \nNo;
    :ログインダイアログ表示;
    end
  endif
else
  -[#red]-> No : いずれかもしくは両方が未入力;
  if (\nコマンドライン実行(※) で、引数により\nユーザIDとパスワードが設定されている\n) then
    -[#blue]-> Yes;
    if (自動ログインの設定は有効か？) then
      -[#blue]-> Yes;
    else
      -[#red]-> \n No ： 無効;
      :ログインダイアログ表示;
      end
    endif
  else
    -[#red]-> \n No ： 無効;
    :ログインダイアログ表示;
    end
  endif
endif
#dbff00:自動ログイン実行;
floating note right: ※ コマンドライン引数については \n 1-2-6. コマンドラインからの OperatorAgent 操作 \nを参照して下さい。
@enduml

PlantUML version 1.2019.06(Sat May 25 02:10:25 JST 2019)
(GPL source distribution)
Java Runtime: Java(TM) SE Runtime Environment
JVM: Java HotSpot(TM) 64-Bit Server VM
Java Version: 1.8.0_251-b08
Operating System: Windows 10
OS Version: 10.0
Default Encoding: MS932
Language: ja
Country: JP
--></g></svg>